<svg xmlns="http://www.w3.org/2000/svg" viewBox="0 0 640 480">
  <ellipse cx="320" cy="424" rx="180" ry="20" fill="#33261D" opacity="0.07"/>
  <!-- scattered seeds -->
  <g fill="#8A5A2B">
    <ellipse cx="205" cy="416" rx="7" ry="5"/>
    <ellipse cx="438" cy="410" rx="7" ry="5"/>
    <ellipse cx="472" cy="422" rx="6" ry="4"/>
    <ellipse cx="178" cy="404" rx="6" ry="4"/>
  </g>
  <!-- left stick (tilted) -->
  <g transform="rotate(-8 252 300)">
    <rect x="225" y="150" width="54" height="270" rx="26" fill="#D9A441"/>
    <circle cx="252" cy="142" r="14" fill="none" stroke="#8A6A4F" stroke-width="7"/>
    <g fill="#8A5A2B">
      <circle cx="242" cy="190" r="5"/><circle cx="262" cy="214" r="5"/>
      <circle cx="240" cy="250" r="5"/><circle cx="264" cy="282" r="5"/>
      <circle cx="244" cy="318" r="5"/><circle cx="260" cy="352" r="5"/>
    </g>
    <g fill="#F7EEDD">
      <circle cx="260" cy="176" r="4"/><circle cx="240" cy="226" r="4"/>
      <circle cx="262" cy="256" r="4"/><circle cx="242" cy="292" r="4"/>
      <circle cx="258" cy="330" r="4"/><circle cx="246" cy="368" r="4"/>
    </g>
  </g>
  <!-- middle stick -->
  <g>
    <rect x="293" y="130" width="54" height="290" rx="26" fill="#E0B054"/>
    <circle cx="320" cy="122" r="14" fill="none" stroke="#8A6A4F" stroke-width="7"/>
    <g fill="#8A5A2B">
      <circle cx="310" cy="172" r="5"/><circle cx="330" cy="200" r="5"/>
      <circle cx="308" cy="238" r="5"/><circle cx="332" cy="270" r="5"/>
      <circle cx="312" cy="306" r="5"/><circle cx="328" cy="344" r="5"/>
    </g>
    <g fill="#3F7A64">
      <circle cx="328" cy="158" r="4"/><circle cx="308" cy="214" r="4"/>
      <circle cx="330" cy="252" r="4"/><circle cx="310" cy="288" r="4"/>
      <circle cx="326" cy="324" r="4"/><circle cx="314" cy="360" r="4"/>
    </g>
  </g>
  <!-- right stick (tilted) -->
  <g transform="rotate(8 388 300)">
    <rect x="361" y="150" width="54" height="270" rx="26" fill="#D9A441"/>
    <circle cx="388" cy="142" r="14" fill="none" stroke="#8A6A4F" stroke-width="7"/>
    <g fill="#8A5A2B">
      <circle cx="378" cy="192" r="5"/><circle cx="398" cy="220" r="5"/>
      <circle cx="376" cy="256" r="5"/><circle cx="400" cy="288" r="5"/>
      <circle cx="380" cy="322" r="5"/><circle cx="396" cy="356" r="5"/>
    </g>
    <g fill="#F7EEDD">
      <circle cx="396" cy="178" r="4"/><circle cx="376" cy="230" r="4"/>
      <circle cx="398" cy="264" r="4"/><circle cx="378" cy="300" r="4"/>
      <circle cx="394" cy="336" r="4"/><circle cx="382" cy="370" r="4"/>
    </g>
  </g>
  <!-- band -->
  <rect x="216" y="330" width="208" height="40" rx="20" fill="#C2553A"/>
  <text x="320" y="357" text-anchor="middle" font-family="system-ui, sans-serif" font-weight="800" font-size="20" fill="#FBF5EC">pecky's</text>
</svg>
