<svg xmlns="http://www.w3.org/2000/svg" viewBox="0 0 200 200" role="img" aria-label="Three-tier cat tree with a cat asleep on top">
  <circle cx="100" cy="100" r="92" fill="#EFE0C4"/>
  <rect x="38" y="158" width="124" height="13" rx="6.5" fill="#7A6A55"/>
  <rect x="70" y="56" width="13" height="102" rx="4" fill="#E2A54E"/>
  <rect x="120" y="94" width="13" height="64" rx="4" fill="#E2A54E"/>
  <g stroke="#FAF4E9" stroke-width="2.2" opacity="0.75">
    <line x1="70" y1="68" x2="83" y2="68"/>
    <line x1="70" y1="80" x2="83" y2="80"/>
    <line x1="70" y1="92" x2="83" y2="92"/>
    <line x1="70" y1="104" x2="83" y2="104"/>
    <line x1="70" y1="140" x2="83" y2="140"/>
    <line x1="70" y1="150" x2="83" y2="150"/>
    <line x1="120" y1="106" x2="133" y2="106"/>
    <line x1="120" y1="118" x2="133" y2="118"/>
    <line x1="120" y1="130" x2="133" y2="130"/>
    <line x1="120" y1="144" x2="133" y2="144"/>
  </g>
  <rect x="48" y="45" width="70" height="12" rx="6" fill="#7C8B6B"/>
  <rect x="98" y="83" width="62" height="12" rx="6" fill="#7C8B6B"/>
  <rect x="52" y="120" width="52" height="11" rx="5.5" fill="#7C8B6B"/>
  <ellipse cx="86" cy="36" rx="17" ry="11" fill="#33271A"/>
  <circle cx="103" cy="30" r="9" fill="#33271A"/>
  <path d="M96 24 l 3 -8 5 6 z" fill="#33271A"/>
  <path d="M105 22 l 4 -7 4 7 z" fill="#33271A"/>
  <path d="M70 38 q -11 -2 -9 -13" stroke="#33271A" stroke-width="5" fill="none" stroke-linecap="round"/>
</svg>
