<svg xmlns="http://www.w3.org/2000/svg" viewBox="0 0 200 200" role="img" aria-label="Aquarium tank with one fish and an LED hood">
  <circle cx="100" cy="100" r="92" fill="#EFE0C4"/>
  <rect x="40" y="44" width="120" height="14" rx="7" fill="#33271A"/>
  <g stroke="#E2A54E" stroke-width="3" stroke-linecap="round">
    <line x1="68" y1="62" x2="63" y2="71"/>
    <line x1="100" y1="62" x2="100" y2="71"/>
    <line x1="132" y1="62" x2="137" y2="71"/>
  </g>
  <rect x="49" y="80" width="102" height="65" rx="6" fill="#A3B38F"/>
  <path d="M49 83 q 17 -7 34 0 t 34 0 t 34 0" stroke="#FAF4E9" stroke-width="3" fill="none" stroke-linecap="round"/>
  <rect x="44" y="60" width="112" height="92" rx="10" fill="none" stroke="#33271A" stroke-width="5"/>
  <ellipse cx="96" cy="112" rx="17" ry="10" fill="#C05F33"/>
  <path d="M111 112 l 15 -9 v 18 z" fill="#C05F33"/>
  <circle cx="85" cy="110" r="2.2" fill="#FAF4E9"/>
  <circle cx="70" cy="97" r="3" fill="#FAF4E9"/>
  <circle cx="64" cy="106" r="2.2" fill="#FAF4E9"/>
  <g>
    <circle cx="60" cy="140" r="5" fill="#E2A54E"/>
    <circle cx="72" cy="142" r="5" fill="#C05F33"/>
    <circle cx="84" cy="140" r="5" fill="#7C8B6B"/>
    <circle cx="96" cy="142" r="5" fill="#E2A54E"/>
    <circle cx="108" cy="140" r="5" fill="#C05F33"/>
    <circle cx="120" cy="142" r="5" fill="#7C8B6B"/>
    <circle cx="132" cy="140" r="5" fill="#E2A54E"/>
    <circle cx="142" cy="142" r="4" fill="#C05F33"/>
  </g>
</svg>
