<svg xmlns="http://www.w3.org/2000/svg" viewBox="0 0 200 200" role="img" aria-label="Coiled rope leash with brass clasp">
  <circle cx="100" cy="100" r="92" fill="#EFE0C4"/>
  <circle cx="100" cy="104" r="46" fill="none" stroke="#C05F33" stroke-width="13"/>
  <circle cx="100" cy="104" r="29" fill="none" stroke="#C05F33" stroke-width="13"/>
  <g stroke="#FAF4E9" stroke-width="2.4" stroke-linecap="round" opacity="0.8">
    <line x1="97" y1="53" x2="103" y2="63"/>
    <line x1="143" y1="87" x2="151" y2="92"/>
    <line x1="143" y1="118" x2="151" y2="113"/>
    <line x1="97" y1="145" x2="103" y2="155"/>
    <line x1="49" y1="92" x2="57" y2="87"/>
    <line x1="49" y1="113" x2="57" y2="118"/>
    <line x1="97" y1="70" x2="103" y2="80"/>
    <line x1="97" y1="128" x2="103" y2="138"/>
  </g>
  <ellipse cx="64" cy="46" rx="19" ry="25" fill="none" stroke="#C05F33" stroke-width="12" transform="rotate(38 64 46)"/>
  <g transform="rotate(24 140 146)">
    <rect x="132" y="128" width="16" height="26" rx="6" fill="#E2A54E"/>
    <path d="M140 154 c 0 13 15 13 15 0 v -7" fill="none" stroke="#E2A54E" stroke-width="6" stroke-linecap="round"/>
  </g>
</svg>
