<svg xmlns="http://www.w3.org/2000/svg" viewBox="0 0 200 200" role="img" aria-label="Dome bird cage with a songbird on its perch">
  <circle cx="100" cy="100" r="92" fill="#EFE0C4"/>
  <g stroke="#33271A" stroke-width="2.5">
    <line x1="72" y1="138" x2="72" y2="65"/>
    <line x1="86" y1="138" x2="86" y2="57"/>
    <line x1="100" y1="138" x2="100" y2="54"/>
    <line x1="114" y1="138" x2="114" y2="57"/>
    <line x1="128" y1="138" x2="128" y2="65"/>
  </g>
  <path d="M58 138 v -42 a 42 42 0 0 1 84 0 v 42" fill="none" stroke="#33271A" stroke-width="5" stroke-linecap="round"/>
  <circle cx="100" cy="48" r="6" fill="none" stroke="#E2A54E" stroke-width="4"/>
  <line x1="66" y1="112" x2="134" y2="112" stroke="#7A6A55" stroke-width="4" stroke-linecap="round"/>
  <path d="M97 110 v 5 M104 110 v 5" stroke="#33271A" stroke-width="2" stroke-linecap="round"/>
  <path d="M88 100 l -11 5 7 4 z" fill="#C05F33"/>
  <ellipse cx="100" cy="100" rx="13" ry="10" fill="#E2A54E"/>
  <circle cx="112" cy="91" r="7.5" fill="#E2A54E"/>
  <path d="M119 90 l 9 3 -9 3 z" fill="#C05F33"/>
  <circle cx="113.5" cy="89" r="1.6" fill="#33271A"/>
  <rect x="50" y="138" width="100" height="14" rx="7" fill="#C05F33"/>
</svg>
